<svg xmlns="http://www.w3.org/2000/svg" width="13.052" height="24.17" viewBox="0 0 13.052 24.17"><path d="M23.992,4.934a2.517,2.517,0,1,0,2.516,2.519A2.518,2.518,0,0,0,23.992,4.934Zm-2.012,6.042A2.521,2.521,0,0,0,19.6,12.7l-2.865,5.674,0,0a2.49,2.49,0,0,0-.287,1.162,2.521,2.521,0,0,0,1.771,2.409h.01l4.8,1.9-1.317,3.808a1.089,1.089,0,0,0,2.048.744l1.775-4.681a1.506,1.506,0,0,0-.421-1.681l-3.2-2.767,1.379-2.787.526,1.928a1.033,1.033,0,0,0,.5.627l3.68,1.942a1.006,1.006,0,1,0,.939-1.777l-3.29-1.744-1.176-4.3A2.512,2.512,0,0,0,21.981,10.975Z" transform="translate(-16.449 -4.934)"/></svg>