<svg xmlns="http://www.w3.org/2000/svg" width="327.175" height="100.581" viewBox="0 0 327.175 100.581"><defs><style>.a{fill:#ff5c01;}.a,.b{fill-rule:evenodd;}</style></defs><g transform="translate(-8498.075 -13679.072)"><g transform="translate(8498.075 13679.072)"><path class="a" d="M8517.334,13754.387V13743.3a33.749,33.749,0,1,1,28.984,0h0l-20.035-26.066v-3.891h6.027a7.129,7.129,0,1,0,0-14.2h-9.139v40.07a25.508,25.508,0,0,0,8.557,1.367,22.487,22.487,0,0,0,3.7-.2h0l4.084,5.254h0l.193.191v30.348a3.306,3.306,0,1,1-6.6,0v-29.57h-1.361a31.217,31.217,0,0,1-8.557-1.168v18.09a2.993,2.993,0,0,1-2.918,2.922h0a2.992,2.992,0,0,1-2.918-2.922Zm30.734-19.062a27.9,27.9,0,1,0-44.154-22.562,28.377,28.377,0,0,0,13.422,23.93l0-43.562h14.977a12.75,12.75,0,0,1,13.426,13.031,12.327,12.327,0,0,1-10.7,12.645Z" transform="translate(-8498.073 -13679.074)"/><path class="a" d="M8757.886,14039a3.891,3.891,0,1,0,3.891,3.891,3.894,3.894,0,0,0-3.891-3.891Z" transform="translate(-8704.405 -13969.163)"/><g transform="translate(49.597 69.838)"><path class="a" d="M8765.462,14042.264h.2c.193,0,.193,0,.193-.2h0v-.07h-.586a.207.207,0,0,0-.139.055.212.212,0,0,0-.055.141l.193,0A.189.189,0,0,0,8765.462,14042.264Z" transform="translate(-8762.738 -14041.418)"/><path class="a" d="M8768.392,14043.264h0a1.474,1.474,0,0,0-.389.777c.193,0,.193-.2.389-.2v-.2h0l.193-.191V14043h0l-.193.2Z" transform="translate(-8765.268 -14042.222)"/><path class="a" d="M8768.58,14048H8768l.193.191h.777a.172.172,0,0,0,.141-.055.181.181,0,0,0,.057-.137h-.586Z" transform="translate(-8765.272 -14046.252)"/><path class="a" d="M8769.393,14044.564h0c.193,0,.193,0,.389.2h0v-.2c-.2-.2-.389-.391-.389-.586,0,.2,0,.391-.2.391h0v.2a.207.207,0,0,0-.139.055.2.2,0,0,0-.055.141h.193v-.2Z" transform="translate(-8766.073 -14043.063)"/><path class="a" d="M8769.272,14049.783a.672.672,0,0,1,.189-.391c0-.2,0-.2.2-.387h-.586v.191a.713.713,0,0,1,.2.59Z" transform="translate(-8765.953 -14047.049)"/><path class="a" d="M8775.392,14055a.7.7,0,0,1-.189.578l-.2.2a.189.189,0,0,1,.057-.137.2.2,0,0,1,.139-.059h.584l.193.2-.193-.2-.2-.191h0C8775.575,14055.262,8775.575,14055.262,8775.392,14055Z" transform="translate(-8770.909 -14051.891)"/><path class="a" d="M8782.19,14055.34l-.193.2h.582a.184.184,0,0,1,.143.051.205.205,0,0,1,.057.145.191.191,0,0,0-.2-.2.721.721,0,0,1-.193-.574v0Z" transform="translate(-8776.56 -14051.968)"/><path class="a" d="M8781.189,14054.783a.184.184,0,0,1,.057-.141.192.192,0,0,1,.141-.059.7.7,0,0,1,.193-.578h-.193v.191h-.2c-.193.2-.193.387-.193.777h0a.206.206,0,0,1,.057-.141.2.2,0,0,1,.137-.055Z" transform="translate(-8775.749 -14051.074)"/><path class="a" d="M8778.579,14054.787a.728.728,0,0,1,.2-.586.176.176,0,0,1,.055-.141.2.2,0,0,1,.139-.055l-.193,0a.189.189,0,0,1-.057.137.184.184,0,0,1-.139.055c-.193,0-.389,0-.389-.191H8778a.181.181,0,0,1,.139.051.2.2,0,0,1,.055.141c.2.2.2.387.389.586Z" transform="translate(-8773.33 -14051.079)"/><path class="a" d="M8778.581,14053.219h.389a.187.187,0,0,0-.053-.141.208.208,0,0,0-.141-.055l-.584,0a.164.164,0,0,0-.137.055.183.183,0,0,0-.057.137Z" transform="translate(-8773.332 -14050.233)"/><path class="a" d="M8778.461,14049.783h.2c-.2-.2-.2-.387-.2-.777v.191c-.193.2-.193.391-.389.586Z" transform="translate(-8773.212 -14047.049)"/><path class="a" d="M8778.189,14049.561a.7.7,0,0,0,.2-.582.191.191,0,0,0-.135.055.185.185,0,0,0-.061.137c-.193,0-.193.2-.193.391v.2h0a.193.193,0,0,0,.193-.2Z" transform="translate(-8773.335 -14047.086)"/><path class="a" d="M8775.27,14049.783c.193-.387.193-.586.391-.777h-.584c0,.191,0,.191.193.391h0Z" transform="translate(-8770.786 -14047.049)"/><path class="a" d="M8774.581,14049.783c0-.2,0-.2-.193-.387v-.2c-.193-.191-.193-.191-.389-.191l.2.191c0,.2,0,.391.193.391,0,.2.193.2.193.391Z" transform="translate(-8770.108 -14047.049)"/><path class="a" d="M8775.186,14048.219h.582a.191.191,0,0,0,.141-.055.2.2,0,0,0,.053-.141H8775C8775,14048.219,8775,14048.219,8775.186,14048.219Z" transform="translate(-8770.913 -14046.206)"/><path class="a" d="M8771.581,14049.264V14049h0a.172.172,0,0,0-.139.051.193.193,0,0,0-.055.137.191.191,0,0,0-.139.063.181.181,0,0,0-.057.137c0,.2-.193.2-.193.391v.191l.389-.387a.673.673,0,0,0,.191-.324Z" transform="translate(-8767.691 -14047.056)"/><path class="a" d="M8772.271,14049c0,.387,0,.582-.193.777h.582C8772.454,14049.529,8772.454,14049.264,8772.271,14049Z" transform="translate(-8768.37 -14047.058)"/><path class="a" d="M8771.581,14053h-.193c-.2,0-.2,0-.389.2h1.168a.2.2,0,0,0-.057-.145.188.188,0,0,0-.141-.055Z" transform="translate(-8767.691 -14050.28)"/><path class="a" d="M8772.4,14054.262a.2.2,0,0,1-.139-.055.2.2,0,0,1-.057-.137h-.2l.2.191a.7.7,0,0,1,.193.582c.193-.2.193-.387.389-.582V14054h0c-.2.191-.2.191-.389.191Z" transform="translate(-8768.496 -14051.084)"/><path class="a" d="M8771.581,14055a1.165,1.165,0,0,0-.193-.773h0c-.2,0-.2-.2-.389-.2h0v.2c.193.2.193.387.389.582Z" transform="translate(-8767.691 -14051.027)"/><path class="a" d="M8774.391,14054.262a1.016,1.016,0,0,0-.389.777c.2,0,.2-.2.389-.2a.673.673,0,0,1,.2-.383l0-.461h0l-.193.191Z" transform="translate(-8770.102 -14051.084)"/><path class="a" d="M8778,14054v.578c.193,0,.193,0,.193.2l.2.191a1.149,1.149,0,0,0-.2-.777h0a.186.186,0,0,1-.139-.051A.2.2,0,0,1,8778,14054Z" transform="translate(-8773.33 -14051.084)"/><path class="a" d="M8775.766,14058.387a.371.371,0,0,0-.582,0H8775l.2.2h.584a.184.184,0,0,1,.193-.2h-.193Z" transform="translate(-8770.913 -14054.513)"/><path class="a" d="M8781.185,14058.223H8781l.193.2h.586l.193-.2h-.193a.184.184,0,0,0-.057-.141.187.187,0,0,0-.139-.055c-.193,0-.193,0-.391.2Z" transform="translate(-8775.744 -14054.263)"/><path class="a" d="M8781.189,14059.223a.211.211,0,0,1-.139-.059.2.2,0,0,1-.055-.141h0c0,.387,0,.586.193.781h0l.2.2h.193a.715.715,0,0,1-.193-.59.189.189,0,0,1-.137-.051A.192.192,0,0,1,8781.189,14059.223Z" transform="translate(-8775.749 -14055.068)"/><path class="a" d="M8778.189,14059.783c.2-.2.2-.391.2-.777h0a.181.181,0,0,1-.057.137.184.184,0,0,1-.139.059c0,.191,0,.191-.193.191h0v.586h0Z" transform="translate(-8773.335 -14055.105)"/><path class="a" d="M8775.46,14060.219a.2.2,0,0,0,.139-.055.2.2,0,0,0,.057-.141h-.582a.724.724,0,0,1,.193.586C8775.46,14060.605,8775.46,14060.41,8775.46,14060.219Z" transform="translate(-8770.793 -14055.875)"/><path class="a" d="M8774.581,14059.783c0-.2-.193-.391-.193-.582-.193,0-.193,0-.389-.2a1.022,1.022,0,0,0,.389.777h0a.187.187,0,0,0,.055.137.194.194,0,0,0,.139.059h0Z" transform="translate(-8770.108 -14055.105)"/><path class="a" d="M8772.773,14060.561c-.2-.2-.2-.387-.391-.582a.7.7,0,0,1-.2.582.2.2,0,0,1-.193.2h.779Z" transform="translate(-8768.503 -14055.951)"/><path class="a" d="M8771.392,14059.783c.193-.2.193-.391.193-.777a.184.184,0,0,1-.193.2.685.685,0,0,0-.2.582.18.18,0,0,0-.137.059.187.187,0,0,0-.055.137h.193a.193.193,0,0,1,.2-.2Z" transform="translate(-8767.685 -14055.105)"/><path class="a" d="M8769.272,14060.561c0-.2.193-.387.389-.582h-.586v.2h0a.587.587,0,0,1,.193.387Z" transform="translate(-8765.953 -14055.951)"/><path class="a" d="M8768.392,14059.342v-.191c-.2,0-.2,0-.389-.2h0a1.031,1.031,0,0,0,.391.777h0v.2h.193c0-.2,0-.391-.193-.391Z" transform="translate(-8765.268 -14055.19)"/><path class="a" d="M8768.4,14058.342h.582a.207.207,0,0,1,.057-.145.192.192,0,0,1,.141-.059l-.2.008c-.193-.2-.193-.2-.389-.2h-.193v.2h-.4c.193,0,.193,0,.193.2Z" transform="translate(-8765.272 -14054.38)"/><path class="a" d="M8769.191,14055.561h.584c-.2-.191-.389-.391-.389-.578,0,.188,0,.188-.2.387h0v.191c-.193,0-.193,0-.193.2C8769,14055.561,8769,14055.561,8769.191,14055.561Z" transform="translate(-8766.085 -14051.925)"/><path class="a" d="M8768.392,14054.783v-.387c.193,0,.193-.2.193-.391h-.193v.191h0a1,1,0,0,0-.389.773v0C8768.181,14054.783,8768.181,14054.783,8768.392,14054.783Z" transform="translate(-8765.268 -14051.074)"/><path class="a" d="M8766.4,14054.793c0-.2.193-.387.389-.586V14054h0c-.2.191-.2.191-.389.191a.185.185,0,0,1-.141-.051.2.2,0,0,1-.057-.141h-.2a.187.187,0,0,0,.055.141.2.2,0,0,0,.139.055c0,.2.2.383.2.582Z" transform="translate(-8763.66 -14051.084)"/><path class="a" d="M8765.581,14055.055c0-.191-.2-.578-.2-.773h-.193V14054H8765c0,.191,0,.391.193.391v.188l.193.2a.2.2,0,0,0,.057.137.2.2,0,0,0,.139.055Z" transform="translate(-8762.858 -14051.084)"/><path class="a" d="M8765.391,14053.219h.779a.184.184,0,0,0-.059-.137.179.179,0,0,0-.135-.059l-.779,0a.187.187,0,0,1-.055.137.194.194,0,0,1-.139.059Z" transform="translate(-8762.852 -14050.233)"/><path class="a" d="M8766.069,14049.791h.586c-.2-.2-.389-.387-.389-.586v-.2c0,.387-.2.582-.2.777h0Z" transform="translate(-8763.545 -14047.058)"/><path class="a" d="M8768,14049c0,.191.193.387.389.582h0v.2h.193v-.2a.2.2,0,0,0-.055-.141.2.2,0,0,0-.139-.055v-.2C8768.186,14049,8768.186,14049,8768,14049Z" transform="translate(-8765.272 -14047.058)"/><path class="a" d="M8765.391,14049.529a.668.668,0,0,0,.2-.391V14049h0c-.2,0-.2,0-.2.191a.184.184,0,0,0-.139.055.2.2,0,0,0-.055.141.2.2,0,0,1-.055.141.207.207,0,0,1-.139.055v.387a.2.2,0,0,1,.057-.137.192.192,0,0,1,.137-.055Z" transform="translate(-8762.852 -14047.058)"/><path class="a" d="M8763.4,14049.783a.733.733,0,0,1,.193-.586l.2-.191H8763l.2.191a.707.707,0,0,1,.193.586Z" transform="translate(-8761.246 -14047.049)"/><path class="a" d="M8762.581,14050a.7.7,0,0,0-.193-.582.2.2,0,0,0-.053-.141.2.2,0,0,0-.141-.059v0c0-.2,0-.2-.2-.2h0c0,.2,0,.391.2.391v.191l.193.2h.193Z" transform="translate(-8760.441 -14047.002)"/><path class="a" d="M8762.4,14048.219h.582l.193-.2H8762a.176.176,0,0,0,.055.141.191.191,0,0,0,.139.059l.2,0Z" transform="translate(-8760.439 -14046.206)"/><path class="a" d="M8763.392,14044.564h.193a.19.19,0,0,0,.2.2h0v-.2c-.2,0-.2,0-.2-.2h0c-.193-.2-.193-.2-.193-.391,0,.2,0,.2-.193.391h0c0,.2,0,.2-.2.2v.2h0a.2.2,0,0,0,.139-.055.2.2,0,0,0,.057-.141Z" transform="translate(-8761.242 -14043.063)"/><path class="a" d="M8765.194,14043.563c.129.129.258.258.391.387h0a.7.7,0,0,0-.2-.578v-.2h-.193a.2.2,0,0,0-.057-.137.208.208,0,0,0-.141-.059h0A.709.709,0,0,0,8765.194,14043.563Z" transform="translate(-8762.865 -14042.255)"/><path class="a" d="M8766.069,14044.221a.583.583,0,0,1,.2.387h0c0-.191.193-.387.389-.582h-.586Z" transform="translate(-8763.545 -14042.986)"/><path class="a" d="M8762.393,14043.563a.7.7,0,0,0,.193-.586h0a.2.2,0,0,0-.137.059.189.189,0,0,0-.057.137h-.193a.71.71,0,0,1-.2.586v.191h0c.133-.129.262-.258.391-.391Z" transform="translate(-8760.435 -14042.255)"/><path class="a" d="M8771,14043.221c.193.2.193.387.389.582l.193.2h0a.7.7,0,0,0-.189-.582l0-.2c-.2,0-.2-.2-.389-.2h0Z" transform="translate(-8767.689 -14042.18)"/><path class="a" d="M8758.722,14040.34l.193.2a.17.17,0,0,0,.139-.051.2.2,0,0,0,.057-.141l.775,0,.2.2h0c.193,0,.193,0,.193-.2h.777a.192.192,0,0,1,.141.059.2.2,0,0,1,.057.137h.193l.2.2c.193.191.193.387.389.582h0v.2h0a.2.2,0,0,0,.057.137.2.2,0,0,0,.137.059h0c.193.2.193.2.193.387h0a.685.685,0,0,1,.2.391l0,.2h.193v.2a.173.173,0,0,1,.139.055.19.19,0,0,1,.057.141.719.719,0,0,1,.191.578h0a.726.726,0,0,1-.193.586.2.2,0,0,1-.057.141.187.187,0,0,1-.139.055v.2h0c-.193,0-.193,0-.193.191v.2a.7.7,0,0,0-.193.391l0,0a.207.207,0,0,0-.139.055.212.212,0,0,0-.055.141v0a.179.179,0,0,0-.137.051.2.2,0,0,0-.057.137v.2h0c-.2.2-.2.391-.389.582l-.2.2h-.193c0,.191,0,.191-.2.191h-.777a.2.2,0,0,0-.055-.141.194.194,0,0,0-.139-.059.207.207,0,0,1-.057.145.2.2,0,0,1-.141.055h-.775a.184.184,0,0,0-.057-.141.191.191,0,0,0-.139-.059v.008a.193.193,0,0,1-.055.137.207.207,0,0,1-.139.055h-.777a.207.207,0,0,1-.139-.055.2.2,0,0,1-.057-.137h-.193a.209.209,0,0,0-.057-.145.2.2,0,0,0-.139-.055c0-.191-.193-.387-.193-.582h0v-.2h0a.176.176,0,0,1-.143-.055.181.181,0,0,1-.057-.137h-.191v-.2h0a.6.6,0,0,1-.193-.387l0-.387h-.193a.171.171,0,0,1-.139-.055.19.19,0,0,1-.057-.141.193.193,0,0,0-.193-.2v-.586h0v-.578a.211.211,0,0,0,.139-.059.2.2,0,0,0,.055-.137l.2-.2h.193v-.2c0-.2,0-.391.2-.391v-.387h.193a.184.184,0,0,1,.055-.145.187.187,0,0,1,.139-.055l0-.191h0c0-.2.193-.391.193-.582.2,0,.2,0,.2-.2h.193a.168.168,0,0,0,.139-.051.2.2,0,0,0,.057-.141Zm3.5,5.641h.193v-.2h.2c0-.191,0-.191.193-.191v-.391a.6.6,0,0,0,.2-.387,2.485,2.485,0,0,0,.193-1.172h0a1.449,1.449,0,0,0-.191-.965l0-.2c0-.2,0-.2-.2-.391v-.191l-.193-.2v-.2a.188.188,0,0,1-.141-.055.2.2,0,0,1-.057-.141h-.193a.677.677,0,0,0-.193-.391c-.2,0-.2-.191-.389-.191h0a.214.214,0,0,0-.057-.141.207.207,0,0,0-.139-.055c-.193-.2-.193-.2-.391-.2l-.193-.191h-.389c-.2,0-.389-.2-.586-.2h-.582c-.193,0-.193,0-.389.2h-.584l-.193.191h-.193l-.2.2h-.193a.19.19,0,0,1-.057.141.187.187,0,0,1-.139.055l-.193.191c-.2,0-.2.2-.391.391h0l-.2.2h0c0,.2-.193.2-.193.391a.181.181,0,0,1-.057.137.191.191,0,0,1-.139.059.729.729,0,0,1-.191.586l0,.965h0v1.168a.186.186,0,0,1,.137.059.2.2,0,0,1,.057.137v.2c.2.191.2.191.2.391h0a.179.179,0,0,1,.137.051.2.2,0,0,1,.057.137l.2.2v.2c.193,0,.193.2.391.2a.185.185,0,0,0,.053.141.2.2,0,0,0,.141.055v0l.2.2h.193a.2.2,0,0,0,.057.137.207.207,0,0,0,.139.055h.193l.193.2h.391l.193.2h.971a.737.737,0,0,0,.586-.2h.389l.193-.2c.2,0,.2,0,.391-.191h0a.191.191,0,0,0,.139-.059.184.184,0,0,0,.057-.141c.193,0,.193,0,.389-.191l.193-.2Z" transform="translate(-8755.609 -14039.885)"/><path class="a" d="M8772.07,14044a.189.189,0,0,0,.057.137.2.2,0,0,0,.137.059h0v.387a.658.658,0,0,0,.2-.387l.193-.2Z" transform="translate(-8768.381 -14043.028)"/><path class="a" d="M8771.392,14042.342h.584a.19.19,0,0,1,.057-.141.184.184,0,0,1,.139-.055h0a.159.159,0,0,1-.139-.055.181.181,0,0,1-.057-.137l-.584,0c-.2.2-.2.2-.389.2h.193Z" transform="translate(-8767.685 -14041.497)"/><path class="a" d="M8757.539,14040.266h.389V14040h1.168a.719.719,0,0,1,.586.2h.387a.168.168,0,0,1,.139.051.19.19,0,0,1,.057.141h.389a.2.2,0,0,0,.055.141.211.211,0,0,0,.139.059c0,.191,0,.191.2.191l.193.2.2.2a.171.171,0,0,1,.139.055.187.187,0,0,1,.055.137l.193.2a.176.176,0,0,0,.055.141.187.187,0,0,0,.139.059l0,0v.391a.19.19,0,0,1,.193.2v.191a2.457,2.457,0,0,1,.2,1.164l0,0a2.414,2.414,0,0,1-.193,1.168.719.719,0,0,1-.2.582v.2a.172.172,0,0,0-.141.055.181.181,0,0,0-.057.137h0l-.193.2a.193.193,0,0,1-.055.137.2.2,0,0,1-.139.059v0l-.2.2-.391.391h-.193v.191h-.389a.2.2,0,0,1-.057.145.187.187,0,0,1-.139.059v0c-.193,0-.389,0-.389.191h-1.752c-.193-.191-.193-.191-.389-.191a.2.2,0,0,1-.2-.2h-.385a.2.2,0,0,0-.057-.137.19.19,0,0,0-.139-.055h-.193v-.2a.208.208,0,0,1-.141-.055.214.214,0,0,1-.057-.141c-.193,0-.193-.2-.389-.2v-.191a.2.2,0,0,1-.139-.059.184.184,0,0,1-.057-.141l-.193-.191h0a.212.212,0,0,0-.055-.141.207.207,0,0,0-.139-.055c0-.2,0-.391-.2-.391v-.191c0-.391-.193-.781-.193-1.168h0c0-.391.193-.777.193-1.168a.594.594,0,0,0,.2-.387c.191-.2.191-.2.191-.391l.2-.2h0a.173.173,0,0,1,.055-.137.2.2,0,0,1,.139-.059v-.191c.2,0,.2-.2.389-.2,0-.2.2-.2.2-.387h.389a.205.205,0,0,1,.055-.145.2.2,0,0,1,.139-.055h.193a.187.187,0,0,1,.193-.2Zm.389-.2h0c-.193,0-.193,0-.389.2h-.193c-.193,0-.193,0-.193.2h-.389c0,.2,0,.2-.193.2l-.2.191-.193.2h-.2v.2l-.193.191a.216.216,0,0,1-.057.145.2.2,0,0,1-.139.055c0,.191,0,.191-.193.387a.6.6,0,0,1-.2.391,2.878,2.878,0,0,0-.193,1.359,4.378,4.378,0,0,0,.2,1.559c.193,0,.193.191.193.387.193,0,.193,0,.193.2l.2.2.193.191h0v.2c.2,0,.2.2.389.2a.2.2,0,0,0,.057.141.208.208,0,0,0,.141.059.172.172,0,0,1,.139.051.2.2,0,0,1,.055.141h.2l.193.2h.193a.2.2,0,0,1,.137.055.2.2,0,0,1,.057.137h.975a.19.19,0,0,0,.055.141.187.187,0,0,0,.139.059c.193,0,.193,0,.389-.2h.973a.19.19,0,0,1,.2-.191c.193,0,.193,0,.389-.2a.184.184,0,0,0,.193-.2c.2,0,.2,0,.391-.2l.2-.2h0l.193-.2.193-.191a.206.206,0,0,1,.057-.141.2.2,0,0,1,.139-.055v-.2a.587.587,0,0,0,.193-.391,4.363,4.363,0,0,0,.391-1.555,2.762,2.762,0,0,0-.391-1.359c0-.2,0-.391-.193-.391v-.387c-.2,0-.2,0-.2-.2a.193.193,0,0,1-.139-.055.189.189,0,0,1-.057-.137h0c-.193,0-.193,0-.193-.2l-.2-.2c-.193,0-.193-.191-.391-.191l-.193-.2c-.2,0-.2-.2-.389-.2h-.2a.607.607,0,0,0-.389-.2Z" transform="translate(-8754.809 -14039.813)"/><path class="a" d="M8756.721,14039.26h.584c.2,0,.2,0,.389-.2h.582a.706.706,0,0,0,.586.2h.389a.19.19,0,0,0,.193.2c.2,0,.2,0,.389.191a.175.175,0,0,1,.141.055.19.19,0,0,1,.057.141c.193,0,.193,0,.389.2l.193.188.193.2h0l.2.2a.19.19,0,0,0,.057.137.183.183,0,0,0,.137.055v.2c.2.2.2.2.2.391a3.3,3.3,0,0,1,0,3.105c0,.2,0,.2-.193.391v.2l-.193.2a.207.207,0,0,1-.057.145.2.2,0,0,1-.139.055.177.177,0,0,1-.057.137.206.206,0,0,1-.137.055v0l-.193.2-.389.391h-.2c-.193.191-.193.191-.389.191l-.193.2h-.389c-.2,0-.391.2-.586.2h-.971c0-.2,0-.2-.2-.2h-.389l-.193-.2h-.193a.193.193,0,0,1-.139-.055.183.183,0,0,1-.059-.137h-.387c0-.2-.193-.2-.193-.391-.2,0-.2-.2-.391-.2v-.187h0c-.2,0-.2,0-.2-.2a.171.171,0,0,1-.139-.055.187.187,0,0,1-.055-.137.184.184,0,0,0-.057-.141.2.2,0,0,0-.139-.062c0-.187,0-.187-.193-.383a6.255,6.255,0,0,1,0-3.109c.193-.2.193-.2.193-.391a.191.191,0,0,0,.139-.059.181.181,0,0,0,.057-.137l.193-.191a.191.191,0,0,1,.057-.141.2.2,0,0,1,.139-.055v-.2h.193c.133-.125.264-.254.391-.387l.2-.2h.193l.2-.2h.193a.161.161,0,0,0,.137-.051.181.181,0,0,0,.057-.137Zm1.168-.2a1.716,1.716,0,1,0-.008-.062Z" transform="translate(-8753.998 -14039.002)"/><path class="a" d="M8759.583,14049h0c-.193,0-.193,0-.389.191v.2h0a.59.59,0,0,0-.2.391h.2v-.2c.2,0,.2,0,.2-.2C8759.583,14049.264,8759.583,14049.264,8759.583,14049Z" transform="translate(-8758.029 -14047.058)"/><path class="a" d="M8760.392,14049c0,.191,0,.387-.193.387,0,.2,0,.2-.2.391h.582v-.391h0a.207.207,0,0,1-.139-.055.2.2,0,0,1-.055-.141Z" transform="translate(-8758.824 -14047.058)"/><path class="a" d="M8759.774,14053h-.584a.172.172,0,0,0-.141.051.2.2,0,0,0-.057.141l1.172,0-.2-.2Z" transform="translate(-8758.034 -14050.276)"/><path class="a" d="M8760.582,14054a.2.2,0,0,1-.055.141.207.207,0,0,1-.139.055c-.193,0-.193,0-.389-.2h0v.191c.2.2.389.387.389.586h0c0-.2.193-.387.193-.586a.181.181,0,0,0,.139-.051.2.2,0,0,0,.057-.141Z" transform="translate(-8758.832 -14051.084)"/><path class="a" d="M8759.579,14055.055a1.446,1.446,0,0,0-.387-.773h0V14054H8759v.191c0,.2,0,.2.193.387v.2C8759.4,14054.793,8759.4,14055.055,8759.579,14055.055Z" transform="translate(-8758.024 -14051.084)"/><path class="a" d="M8757.582,14055.561v-.191c-.193-.2-.193-.2-.193-.387,0,.188-.2.188-.2.387a.184.184,0,0,1-.193.2v0h.584c.2,0,.2,0,.2.2C8757.768,14055.561,8757.768,14055.561,8757.582,14055.561Z" transform="translate(-8756.415 -14051.925)"/><path class="a" d="M8756.19,14054.783c.2-.2.2-.2.2-.387h0c.193-.2.193-.2.193-.391h-.193v.191h-.2c0,.2,0,.2-.193.387v.391h0Z" transform="translate(-8755.613 -14051.074)"/><path class="a" d="M8756.186,14059.1H8756v.188a.626.626,0,0,1,.2.395h0a.171.171,0,0,1,.139.055.19.19,0,0,1,.057.141h.193v-.2a.211.211,0,0,1-.139-.059.2.2,0,0,1-.055-.137C8756.4,14059.1,8756.4,14059.1,8756.186,14059.1Z" transform="translate(-8755.608 -14054.95)"/><path class="a" d="M8757,14060l.193.2a.68.68,0,0,0,.2.391.6.6,0,0,1,.193-.391v-.2Z" transform="translate(-8756.415 -14055.919)"/><path class="a" d="M8756.4,14058.264h.391c.193,0,.193-.2.389-.2h-.389v-.07h-.391l-.2.2h-.2a.176.176,0,0,1,.139.055.193.193,0,0,1,.055.137Z" transform="translate(-8755.608 -14054.301)"/><path class="a" d="M8759.189,14059.34v.2c-.193,0-.193,0-.193.2v.2h.193v-.2a1.006,1.006,0,0,0,.391-.777C8759.4,14059.34,8759.4,14059.34,8759.189,14059.34Z" transform="translate(-8758.029 -14055.187)"/><path class="a" d="M8762,14059c0,.387.2.582.2.781h.193v.2h.193c0-.2,0-.395-.193-.395,0-.2,0-.2-.193-.2v-.191Z" transform="translate(-8760.439 -14055.11)"/><path class="a" d="M8763,14060l.2.2a.592.592,0,0,1,.2.387h0a.6.6,0,0,1,.193-.383v0l.2-.2Z" transform="translate(-8761.246 -14055.919)"/><path class="a" d="M8762.4,14058.342h.582c0-.2,0-.2.193-.2h-.193l-.193-.2h-.389l-.193.2H8762c.2,0,.2,0,.2.2Z" transform="translate(-8760.439 -14054.38)"/><path class="a" d="M8763.191,14055.561h.582a.17.17,0,0,1-.139-.051.19.19,0,0,1-.057-.141h0c-.193-.2-.193-.2-.193-.387h0c0,.188,0,.188-.193.387a.19.19,0,0,1-.057.141.184.184,0,0,1-.139.055v0Z" transform="translate(-8761.253 -14051.925)"/><path class="a" d="M8762.191,14054.783l.193-.2a.687.687,0,0,0,.193-.578h-.193v.191h-.193c0,.2-.2.387-.2.777h0Z" transform="translate(-8760.446 -14051.074)"/><path class="a" d="M8765.391,14059.223l-.193.188v.2c-.193,0-.193.2-.193.391h.193c0-.2,0-.2.193-.2.2-.2.2-.395.2-.781h0Z" transform="translate(-8762.852 -14055.068)"/><path class="a" d="M8760.582,14060.561c0-.2-.193-.387-.193-.582h0c0,.2-.193.387-.389.582v.2h.777Z" transform="translate(-8758.832 -14055.951)"/><path class="a" d="M8759.765,14064H8759v.2h.973a.2.2,0,0,0,.139-.059.189.189,0,0,0,.057-.137h-.389Z" transform="translate(-8758.024 -14059.142)"/><path class="a" d="M8766.393,14060c0,.2-.2.387-.2.582l-.193.2h.779v-.2C8766.586,14060.387,8766.393,14060.2,8766.393,14060Z" transform="translate(-8763.656 -14055.919)"/><path class="a" d="M8765.581,14064H8765v.2h1.164v-.2h-.582Z" transform="translate(-8762.858 -14059.142)"/><path class="a" d="M8766.4,14065h-.4l.193.2a1.887,1.887,0,0,1,.2.582h0c0-.391.193-.582.389-.582v-.2h-.389Z" transform="translate(-8763.66 -14059.944)"/><path class="a" d="M8765.581,14065.564c0-.2-.2-.2-.2-.391a.2.2,0,0,1-.137-.055.2.2,0,0,1-.057-.137l-.189,0v.2l.193.2c0,.2,0,.2.193.2,0,.191,0,.191.2.387h0Z" transform="translate(-8762.858 -14059.981)"/><path class="a" d="M8763.581,14066.342a.248.248,0,0,0-.027-.328.245.245,0,0,0-.328,0,.242.242,0,0,0-.031.328l-.2.191h.777Z" transform="translate(-8761.248 -14060.827)"/><path class="a" d="M8762.395,14065.342c.193-.2.193-.2.193-.391h-.193a.212.212,0,0,1-.055.141.207.207,0,0,1-.139.055v.2a.7.7,0,0,0-.193.582h0a.2.2,0,0,1,.2-.2v-.187C8762.395,14065.607,8762.395,14065.607,8762.395,14065.342Z" transform="translate(-8760.436 -14060.024)"/><path class="a" d="M8760.58,14065.342v-.2l.2-.2H8760v.2c.2,0,.2,0,.2.2h0c.193,0,.193.2.193.387h0C8760.4,14065.607,8760.4,14065.342,8760.58,14065.342Z" transform="translate(-8758.829 -14060.024)"/><path class="a" d="M8759.4,14065.264c0-.2,0-.2-.2-.2v-.07h-.2c0,.2,0,.2.193.391h0v.2l.391.387v-.191A.606.606,0,0,0,8759.4,14065.264Z" transform="translate(-8758.024 -14059.944)"/><path class="a" d="M8762.191,14069a.2.2,0,0,1-.057.141.2.2,0,0,1-.139.051h.389l.193.2h.2c0-.2,0-.2.193-.2h.193a.192.192,0,0,1-.137-.055.189.189,0,0,1-.057-.137Z" transform="translate(-8760.446 -14063.168)"/><path class="a" d="M8762.191,14070.221a.19.19,0,0,0-.2-.2v.2c0,.2.2.391.2.586.193,0,.193,0,.193.191h.193a.707.707,0,0,0-.189-.582h0Z" transform="translate(-8760.446 -14063.931)"/><path class="a" d="M8763,14070v.191a.2.2,0,0,1,.2.2h0c.193.2.193.2.193.391,0-.2,0-.2.193-.391h0a.181.181,0,0,1,.057-.137.192.192,0,0,1,.141-.059H8763Z" transform="translate(-8761.246 -14063.972)"/><path class="a" d="M8765.393,14070.219a.193.193,0,0,0-.193.2h0a.712.712,0,0,0-.191.586l.191,0c0-.191,0-.191.193-.191v-.2a.7.7,0,0,0,.2-.582h0a.181.181,0,0,0-.139.051A.2.2,0,0,0,8765.393,14070.219Z" transform="translate(-8762.852 -14063.929)"/><path class="a" d="M8766.393,14071c0,.191,0,.191-.2.387v.2c-.193,0-.193,0-.193.2a.2.2,0,0,1,.055-.141.194.194,0,0,1,.139-.059l.586,0h0C8766.586,14071.389,8766.393,14071.193,8766.393,14071Z" transform="translate(-8763.656 -14064.78)"/><path class="a" d="M8765.854,14074.221c-.193,0-.193-.2-.389-.2a.172.172,0,0,0-.141.051.19.19,0,0,0-.057.141l-.193,0c0,.2,0,.2.193.2h.586v-.2Z" transform="translate(-8762.733 -14067.148)"/><path class="a" d="M8768.392,14070.781h0v.2h.193v-.2c0-.2,0-.2-.193-.387v-.2c-.2,0-.2-.2-.389-.2A1.474,1.474,0,0,0,8768.392,14070.781Z" transform="translate(-8765.268 -14063.963)"/><path class="a" d="M8769.191,14070.34c.2.2.2.2.2.391,0-.2.193-.391.389-.586h-.584a.188.188,0,0,1-.141-.051.21.21,0,0,1-.053-.141c0,.191,0,.191.193.191Z" transform="translate(-8766.085 -14064.049)"/><path class="a" d="M8768.582,14069.34c.2,0,.2-.2.389-.2h.2l-.2-.191h-.582c-.2,0-.2.191-.391.191h.391Z" transform="translate(-8765.272 -14063.247)"/><path class="a" d="M8769.272,14066.563h.389l-.2-.2h0a.689.689,0,0,0-.193-.391.591.591,0,0,1-.2.387v.2Z" transform="translate(-8765.953 -14060.781)"/><path class="a" d="M8768.392,14065.529v-.2c.193,0,.193,0,.193-.2V14065h-.193v.2a.99.99,0,0,0-.389.773Z" transform="translate(-8765.268 -14059.944)"/><path class="a" d="M8771,14065a.644.644,0,0,0,.193.391.214.214,0,0,0,.057.141.2.2,0,0,0,.139.055c0,.2.193.2.193.387h0v-.387c0-.2-.193-.2-.193-.387C8771.193,14065,8771.193,14065,8771,14065Z" transform="translate(-8767.689 -14059.944)"/><path class="a" d="M8771.186,14064.264h.975V14064H8771Z" transform="translate(-8767.689 -14059.142)"/><path class="a" d="M8772.4,14065h-.4a.2.2,0,0,1,.139.059.2.2,0,0,1,.057.141c.193,0,.193.387.193.582.193-.2.193-.582.389-.582v-.2h-.389Z" transform="translate(-8768.496 -14059.944)"/><path class="a" d="M8774.391,14065.223c-.193,0-.193.191-.193.387a.2.2,0,0,1-.057.141.2.2,0,0,1-.139.055v.191h.2c0-.191,0-.191.193-.387v-.2c.193,0,.193-.191.193-.387h0a.186.186,0,0,0-.139.051.212.212,0,0,0-.055.141Z" transform="translate(-8770.102 -14059.906)"/><path class="a" d="M8775.27,14066v.391c-.193,0-.193,0-.193.191h.584C8775.453,14066.264,8775.453,14066.264,8775.27,14066Z" transform="translate(-8770.786 -14060.749)"/><path class="a" d="M8775.773,14069h-.582a.172.172,0,0,0-.141.051.2.2,0,0,0-.057.141h.2a.356.356,0,0,0,.291.148.362.362,0,0,0,.291-.148h.193a.2.2,0,0,0-.055-.141.207.207,0,0,0-.139-.055Z" transform="translate(-8770.921 -14063.173)"/><path class="a" d="M8775.773,14070.221h-.582a.19.19,0,0,0-.2-.2.2.2,0,0,0,.2.2.72.72,0,0,1,.193.586c.193-.2.193-.395.389-.59l.193-.191a.186.186,0,0,0-.139.051A.2.2,0,0,0,8775.773,14070.221Z" transform="translate(-8770.921 -14063.931)"/><path class="a" d="M8774.581,14070.781c0-.2-.193-.387-.193-.582-.193,0-.193-.2-.389-.2h0c0,.2.2.391.2.582a.187.187,0,0,1,.139.059.193.193,0,0,1,.055.137l.193.2h0Z" transform="translate(-8770.108 -14063.963)"/><path class="a" d="M8772.582,14071.342c0-.2-.193-.2-.193-.391v.391h0a.175.175,0,0,0-.141.055.189.189,0,0,0-.057.137.2.2,0,0,0-.193.2l.2-.2h.582Z" transform="translate(-8768.497 -14064.856)"/><path class="a" d="M8771.392,14070.561a.7.7,0,0,0,.193-.582h0l-.193.191a.614.614,0,0,0-.193.391c-.2.2-.2.2-.2.391h0c.193,0,.193-.2.389-.2Z" transform="translate(-8767.685 -14064.005)"/><path class="a" d="M8771.461,14074l-.193.2h-.2a.191.191,0,0,0,.057.141.2.2,0,0,0,.139.059l.582,0,.2-.2h-.2C8771.646,14074.264,8771.646,14074,8771.461,14074Z" transform="translate(-8767.571 -14067.191)"/><path class="a" d="M8778.185,14074.244H8778a.193.193,0,0,0,.055.137.211.211,0,0,0,.139.059h.586a.211.211,0,0,0,.139-.059.193.193,0,0,0,.055-.137h-.193l-.2-.2C8778.4,14073.979,8778.185,14073.979,8778.185,14074.244Z" transform="translate(-8773.33 -14067.171)"/><path class="a" d="M8778,14071.791a.2.2,0,0,0,.139-.055.2.2,0,0,0,.055-.141h.586a.2.2,0,0,0,.055.141.2.2,0,0,0,.139.055l-.193-.2-.2-.191h0v-.4h0c-.193.191-.193.387-.389.582Z" transform="translate(-8773.33 -14064.78)"/><path class="a" d="M8778,14070.781h.193a1.16,1.16,0,0,0,.2-.777l-.2.2a.6.6,0,0,0-.2.391l0,.387h0Z" transform="translate(-8773.332 -14063.963)"/><path class="a" d="M8781,14070v.582c.193,0,.193,0,.193.2a.7.7,0,0,0,.391.191v0a.7.7,0,0,1-.191-.586l-.2-.2Z" transform="translate(-8775.744 -14063.972)"/><path class="a" d="M8782,14070.221l.193.2h0c0,.2,0,.2.2.391h0v-.391h0c.127-.133.256-.262.391-.391a.206.206,0,0,0-.143.055.2.2,0,0,0-.057.141Z" transform="translate(-8776.555 -14063.931)"/><path class="a" d="M8781.189,14069.219c.2,0,.2.2.391.2l.2-.2h.389c-.2,0-.2-.191-.389-.191h-.586l-.193.191Z" transform="translate(-8775.749 -14063.126)"/><path class="a" d="M8784.2,14070.219v.2a.712.712,0,0,0-.2.582h0l.2-.191a.614.614,0,0,0,.193-.391c0-.2.193-.2.193-.387h-.193a.189.189,0,0,1-.057.137.2.2,0,0,1-.141.059Z" transform="translate(-8778.171 -14063.93)"/><path class="a" d="M8782.392,14066.563h.193a.713.713,0,0,1-.189-.582l0,0c-.2.2-.2.391-.389.586Z" transform="translate(-8776.55 -14060.781)"/><path class="a" d="M8781.189,14065.566c.2,0,.2-.2.2-.391a.2.2,0,0,1,.053-.141.212.212,0,0,1,.141-.059v0c-.193,0-.391,0-.391.2a.678.678,0,0,0-.193.387v.391C8781,14065.828,8781.189,14065.828,8781.189,14065.566Z" transform="translate(-8775.749 -14059.982)"/><path class="a" d="M8778.579,14065.783c0-.191,0-.582.2-.582,0-.2,0-.2.193-.2H8778c.193,0,.193,0,.193.2.2,0,.2.191.389.582Z" transform="translate(-8773.33 -14059.939)"/><path class="a" d="M8778.4,14066.057c0-.387,0-.582-.2-.777h0l-.2-.281h0v.2c0,.191,0,.387.193.387C8778.185,14065.791,8778.4,14065.791,8778.4,14066.057Z" transform="translate(-8773.33 -14059.944)"/><path class="a" d="M8778.185,14064.221h.586c.193,0,.193,0,.193-.2H8778v.2Z" transform="translate(-8773.33 -14059.099)"/><path class="a" d="M8784,14065a.71.71,0,0,0,.2.586v.2c.193,0,.193,0,.193.191h.193v-.191a.689.689,0,0,1-.193-.391.194.194,0,0,0-.055-.141.2.2,0,0,0-.139-.051.177.177,0,0,0-.057-.141A.191.191,0,0,0,8784,14065Z" transform="translate(-8778.166 -14059.944)"/><path class="a" d="M8785,14065.223a.188.188,0,0,1,.141.051.206.206,0,0,1,.057.141h0a.689.689,0,0,1,.193.391h0v-.391l.193-.191a.207.207,0,0,1,.057-.145.2.2,0,0,1,.139-.055l-.779,0Z" transform="translate(-8778.966 -14059.905)"/><path class="a" d="M8787.193,14065.223v.191a.707.707,0,0,0-.193.586l0,0c0-.191.2-.191.2-.387h.193v-.2h0c0-.191.193-.191.193-.387h-.193a.193.193,0,0,1-.055.137A.211.211,0,0,1,8787.193,14065.223Z" transform="translate(-8780.584 -14059.907)"/><path class="a" d="M8784.192,14059.785a1.024,1.024,0,0,0,.383-.781l0,0a.208.208,0,0,0-.141.055.2.2,0,0,0-.053.141h-.193a1.46,1.46,0,0,0-.2.777h.2Z" transform="translate(-8778.167 -14055.105)"/><path class="a" d="M8782.4,14060.561a.722.722,0,0,1,.193-.582H8782a.2.2,0,0,0,.055.141.207.207,0,0,0,.139.055h0c0,.191,0,.387.2.387Z" transform="translate(-8776.555 -14055.951)"/><path class="a" d="M8778.773,14060.561a.694.694,0,0,1-.2-.578v0c-.193.2-.193.387-.389.582,0,.2,0,.2-.193.2h.971C8778.773,14060.826,8778.773,14060.826,8778.773,14060.561Z" transform="translate(-8773.34 -14055.951)"/><path class="a" d="M8785.393,14060c-.193.2-.193.387-.391.582v.2h.779a.168.168,0,0,1-.139-.055.19.19,0,0,1-.057-.141A.7.7,0,0,1,8785.393,14060Z" transform="translate(-8778.961 -14055.919)"/><path class="a" d="M8788.187,14060.262a.183.183,0,0,1,.135.063.181.181,0,0,1,.055.137.587.587,0,0,1,.193-.391l0-.07H8788l.2.2Z" transform="translate(-8781.383 -14055.919)"/><path class="a" d="M8790.19,14059.564c-.193,0-.193,0-.193.2v.2h.193v-.2a.2.2,0,0,0,.139-.059.189.189,0,0,0,.057-.137.707.707,0,0,0,.193-.586.211.211,0,0,0-.139.059.2.2,0,0,0-.055.141l-.2.188Z" transform="translate(-8783 -14055.145)"/><path class="a" d="M8787.58,14058.264h.2a.187.187,0,0,0,.139-.059.181.181,0,0,0,.057-.137h-.2v-.07h-.389l-.193.2H8787l.2.2h.387Z" transform="translate(-8780.577 -14054.301)"/><path class="a" d="M8788.391,14055.561h.2c.2,0,.2,0,.2.2,0-.2,0-.2-.2-.2v-.191c-.2-.2-.2-.2-.2-.387,0,.188-.191.188-.191.387a.19.19,0,0,1-.057.141.2.2,0,0,1-.139.055v0Z" transform="translate(-8781.378 -14051.925)"/><path class="a" d="M8787.192,14054.783c.193-.2.193-.2.193-.387h0c.193-.2.193-.2.193-.391h-.193v.191h-.193c-.2.2-.2.387-.2.777Z" transform="translate(-8780.583 -14051.074)"/><path class="a" d="M8790,14054.262c0,.2,0,.2.193.387v.2c.2,0,.2,0,.2.2h.193c0-.2,0-.391-.193-.391,0-.191,0-.191-.2-.387h0V14054H8790Z" transform="translate(-8782.995 -14051.084)"/><path class="a" d="M8785.393,14054.783a.707.707,0,0,1,.193-.586l.2-.191h-.2a.19.19,0,0,1-.193.191c-.193,0-.193,0-.391-.191h0v.191C8785.2,14054.4,8785.2,14054.584,8785.393,14054.783Z" transform="translate(-8778.961 -14051.074)"/><path class="a" d="M8784.584,14055.055a1.518,1.518,0,0,0-.387-.773h0L8784,14054h0a1.149,1.149,0,0,0,.2.777h0a.156.156,0,0,1,.139.051.181.181,0,0,1,.057.137Z" transform="translate(-8778.165 -14051.084)"/><path class="a" d="M8784.192,14053.262h.777V14053h-.777a.185.185,0,0,0-.141.051.19.19,0,0,0-.057.141l.2,0Z" transform="translate(-8778.168 -14050.276)"/><path class="a" d="M8785,14049.662h.584c0-.2,0-.2-.193-.387h0v-.2l-.193.2C8785.2,14049.467,8785,14049.467,8785,14049.662Z" transform="translate(-8778.966 -14046.926)"/><path class="a" d="M8784,14049.783a.18.18,0,0,0,.141-.055.2.2,0,0,0,.057-.141.185.185,0,0,0,.135-.059.188.188,0,0,0,.057-.133.714.714,0,0,0,.193-.391h-.193a.19.19,0,0,0-.2.191c-.193.2-.193.391-.193.781Z" transform="translate(-8778.164 -14047.049)"/><path class="a" d="M8787.193,14049.344v.191l.193.2h.193a.712.712,0,0,1-.193-.395v0c-.129-.133-.258-.262-.393-.391h0C8787.008,14049.344,8787.008,14049.344,8787.193,14049.344Z" transform="translate(-8780.585 -14047.138)"/><path class="a" d="M8782.4,14049.783c0-.387,0-.586.193-.777H8782c.193.191.193.391.389.777Z" transform="translate(-8776.555 -14047.049)"/><path class="a" d="M8781.393,14049.566c0-.2,0-.391-.2-.391a.175.175,0,0,0-.053-.141.192.192,0,0,0-.141-.059v.2c0,.2,0,.391.193.391,0,.2.2.2.391.391C8781.393,14049.828,8781.393,14049.828,8781.393,14049.566Z" transform="translate(-8775.74 -14047.092)"/><path class="a" d="M8781.189,14043.783l.2-.2a.7.7,0,0,1,.193-.582h-.193a.189.189,0,0,1-.057.137.192.192,0,0,1-.141.059c0,.191,0,.191-.193.191v.582h0Z" transform="translate(-8775.749 -14042.217)"/><path class="a" d="M8778.461,14044.564v-.391l.2-.2h-.584C8778.268,14044.174,8778.268,14044.369,8778.461,14044.564Z" transform="translate(-8773.212 -14043.063)"/><path class="a" d="M8778.395,14044a1.143,1.143,0,0,0-.193-.777h0a.2.2,0,0,1-.137-.059.2.2,0,0,1-.057-.137h0v.2a.722.722,0,0,0,.193.582Z" transform="translate(-8773.329 -14042.17)"/><path class="a" d="M8775.773,14044.564c-.2-.2-.2-.391-.389-.586a.725.725,0,0,1-.191.586l-.2.2h.2a.356.356,0,0,1,.291-.148.362.362,0,0,1,.291.148h.193a.211.211,0,0,1-.139-.059A.193.193,0,0,1,8775.773,14044.564Z" transform="translate(-8770.921 -14043.063)"/><path class="a" d="M8774.391,14043.791c0-.2.193-.2.193-.391v-.4h0c-.131.129-.26.258-.389.387,0,.2-.193.395-.193.586C8774.18,14044.057,8774.18,14043.791,8774.391,14043.791Z" transform="translate(-8770.102 -14042.222)"/><path class="a" d="M8778.189,14042.223c0,.191.2.191.391.191h.2l.193-.191-.193-.2h-.586a.193.193,0,0,1-.055.137.187.187,0,0,1-.139.059Z" transform="translate(-8773.335 -14041.38)"/><path class="a" d="M8782.392,14044c-.2.2-.2.2-.2.391a.187.187,0,0,1-.193.2v.2h0c.193-.2.193-.2.389-.2a.184.184,0,0,1,.193.2l.2,0-.2-.2-.193-.191h0Z" transform="translate(-8776.55 -14043.028)"/><path class="a" d="M8784,14043a.706.706,0,0,0,.2.586v.2c.193,0,.193.191.387.191h0a.19.19,0,0,0-.057-.137.186.186,0,0,0-.137-.059.714.714,0,0,0-.193-.582Z" transform="translate(-8778.166 -14042.222)"/><path class="a" d="M8781.765,14048H8781a.2.2,0,0,0,.055.137.194.194,0,0,0,.139.059l.586,0c.193,0,.193,0,.193-.191h-.193Z" transform="translate(-8775.744 -14046.252)"/><path class="a" d="M8787,14059c0,.387,0,.582.2.781h0a.183.183,0,0,1,.139.051.2.2,0,0,1,.055.141l.193,0v-.2a.211.211,0,0,1-.139-.059.2.2,0,0,1-.055-.141h0c0-.2,0-.2-.193-.387a.168.168,0,0,1-.139-.051.2.2,0,0,1-.057-.141Z" transform="translate(-8780.577 -14055.11)"/><path class="a" d="M8785.163,14064H8784v.2h.975l.193-.2Z" transform="translate(-8778.164 -14059.142)"/></g></g><g transform="translate(8587.161 13693.649)"><path class="b" d="M10035.881,13761.863H10024V13755h30.539v6.8h-11.865v33.652h-6.809Z" transform="translate(-9816.45 -13754.984)"/><path class="b" d="M9832.812,13761.873v33.457H9826v-40.32h14.979a12.608,12.608,0,0,1,13.225,13.027,12.123,12.123,0,0,1-9.725,12.258l12.645,14.977h-8.754l-14.588-17.5v-3.5h7.2a6.243,6.243,0,0,0,6.6-6.227,6.131,6.131,0,0,0-6.6-6.223Z" transform="translate(-9656.963 -13754.994)"/><path class="b" d="M9621.478,13784h-13.422c-1.557,3.5-3.111,7.2-4.473,11.09l-.193.191H9596l16.338-40.262h4.861l16.146,40.262h-7.2Zm-6.6-17.895-4.279,11.477h8.363Z" transform="translate(-9471.705 -13754.948)"/><path class="b" d="M9422.666,13769.258l10.5-14.2h8.184l-14.592,20.23c2.9,3.887,6.418,8.75,9.336,12.836l-2.918,7.2-10.5-14.2-10.3,14.2H9404l14.586-20.031c-4.668-6.422-9.338-13.031-13.99-19.453l-.6-.836h8.363Z" transform="translate(-9317.049 -13754.984)"/><path class="b" d="M9155,13775.043a20.08,20.08,0,0,1,6.029-14.2,20.483,20.483,0,0,1,14.4-5.832,21.39,21.39,0,0,1,14.783,5.832,20.439,20.439,0,0,1,0,28.6,21.39,21.39,0,0,1-14.783,5.832,20.464,20.464,0,0,1-14.395-5.832,20.176,20.176,0,0,1-6.027-14.395Zm34.234,0a13.917,13.917,0,0,0-3.889-9.531,14.139,14.139,0,0,0-9.924-3.887,13.543,13.543,0,0,0-9.531,3.887,12.986,12.986,0,0,0-4.088,9.531,13.4,13.4,0,0,0,4.088,9.73,13.568,13.568,0,0,0,9.533,3.887,13.309,13.309,0,0,0,13.811-13.621Z" transform="translate(-9116.486 -13754.963)"/><path class="b" d="M8963.812,13761.873v33.457H8957v-40.32h14.979a12.608,12.608,0,0,1,13.227,13.027,12.147,12.147,0,0,1-9.729,12.258l12.646,14.977h-8.756l-14.588-17.5v-3.5h7.2a6.246,6.246,0,0,0,6.6-6.227,6.131,6.131,0,0,0-6.6-6.223Z" transform="translate(-8957.001 -13754.994)"/><g transform="translate(0.003 47.089)"><path d="M8966.925,14002.018l2.723,7.586H8964.2Zm6.42,16.73h3.3l-8.562-21.75h-2.334l-8.752,21.789h3.5c.584-1.75,1.752-4.281,2.527-6.227h7.781Z" transform="translate(-8957.002 -13996.997)"/><path d="M9125.813,14005.746a9.886,9.886,0,0,0-10.295-7.781,10.427,10.427,0,0,0-10.508,10.891,10.325,10.325,0,0,0,10.5,10.9,10.66,10.66,0,0,0,9.922-6.812l0,.2a29,29,0,0,0,.586-3.895H9114.35v3.117h7.977a6.78,6.78,0,0,1-6.809,4.469,7.894,7.894,0,0,1,0-15.754,6.525,6.525,0,0,1,7.006,4.672Z" transform="translate(-9076.219 -13997.893)"/><path d="M9274.3,14011.143h9.727v-3.113H9274.3V14002h9.92v-3H9271v21.383h13.227v-3.109H9274.3Z" transform="translate(-9209.925 -13998.609)"/><path d="M9400.114,14019.65v-14.98l10.3,14.98h2.529V13998h-3.111v15.367l-10.5-15.367H9397v21.59Z" transform="translate(-9311.413 -13997.805)"/><path d="M9538,14008.867a10.837,10.837,0,0,0,3.111,7.781,9.942,9.942,0,0,0,7.395,3.113,10.579,10.579,0,0,0,10.3-8.172h-3.109a7.292,7.292,0,0,1-7.2,5.059,6.959,6.959,0,0,1-5.254-2.34,7.534,7.534,0,0,1,0-10.891,6.96,6.96,0,0,1,5.25-2.332,6.889,6.889,0,0,1,7,4.863h3.115a10.383,10.383,0,0,0-17.51-4.867,11.553,11.553,0,0,0-3.105,7.789Z" transform="translate(-9424.99 -13997.849)"/><path d="M9689,13999l7.977,12.645v8.754h3.111v-8.754l7.979-12.645h-3.7l-5.836,9.336L9692.7,13999Z" transform="translate(-9546.615 -13998.609)"/></g></g></g></svg>